<svg version="1.2" baseProfile="tiny-ps" xmlns="http://www.w3.org/2000/svg" viewBox="0 0 2476 2443" width="2476" height="2443">
	<title>Layer 1</title>
	<style>
		tspan { white-space:pre }
		.shp0 { fill: #ffffff } 
		.shp1 { fill: #371a45 } 
		.shp2 { fill: #16b767 } 
		.shp3 { fill: #9b5639 } 
		.shp4 { fill: #a34f31 } 
		.shp5 { fill: #fcc0b4 } 
		.shp6 { fill: #fcf7fb } 
		.shp7 { fill: #6b184e } 
		.shp8 { fill: #181558 } 
		.shp9 { fill: #220f2d } 
	</style>
	<g id="Layer 1">
		<g id="&lt;Group&gt;">
			<g id="&lt;Group&gt;">
				<g id="&lt;Group&gt;">
					<g id="&lt;Group&gt;">
						<path id="&lt;Path&gt;" class="shp0" d="M1958.62 2003.17C2127 2030.2 2227.61 2016.34 2260.47 1961.58C2332.91 1840.84 2326.2 1422.28 2260.47 1317.64C2222.79 1257.66 2112.28 1243.92 1928.94 1276.41L1958.62 2003.17Z" />
					</g>
					<g id="&lt;Group&gt;">
						<path id="&lt;Path&gt;" class="shp0" d="M1958.62 2003.17C2127 2030.2 2227.61 2016.34 2260.47 1961.58C2332.91 1840.84 2326.2 1422.28 2260.47 1317.64C2222.79 1257.66 2112.28 1243.92 1928.94 1276.41L1958.62 2003.17Z" />
					</g>
					<g id="&lt;Group&gt;" style="opacity: 0.349">
						<path id="&lt;Path&gt;" class="shp1" d="M2260.47 1961.57C2227.61 2016.33 2126.99 2030.19 1958.61 2003.16L1958.61 1831.55C2126.99 1858.58 2227.61 1844.71 2260.47 1789.96C2287.96 1744.11 2304.1 1655.24 2309.88 1556.92C2318.76 1711.18 2303.71 1889.49 2260.47 1961.57Z" />
					</g>
					<g id="&lt;Group&gt;">
						<path id="&lt;Compound Path&gt;" fill-rule="evenodd" class="shp1" d="M2088.79 2029.77C2025.55 2029.77 1968.45 2021.2 1956.05 2019.21C1948.42 2017.98 1942.7 2011.55 1942.39 2003.83L1912.71 1277.07C1912.38 1268.95 1918.1 1261.83 1926.1 1260.41C1955.35 1255.23 2213.64 1212.54 2274.22 1309C2313.14 1370.95 2327.8 1517.23 2328.53 1633.47C2329.49 1786.06 2309.26 1911.84 2274.4 1969.94C2245.58 2017.98 2162.96 2029.77 2088.79 2029.77ZM1974.3 1989.07C2049.53 1999.41 2212.91 2009.29 2246.54 1953.23C2277.99 1900.81 2296.96 1778.37 2296.04 1633.67C2295.17 1495.39 2275.34 1371.86 2246.71 1326.28C2207.57 1263.96 2027.91 1277.46 1945.75 1290.1L1974.3 1989.07Z" />
					</g>
					<g id="&lt;Group&gt;">
						<path id="&lt;Path&gt;" class="shp0" d="M2129.51 1659.04L2241.81 1656.61C2263.49 1656.14 2281.65 1673.03 2282.6 1694.69C2285.08 1751.23 2282.69 1851.07 2236.65 1866.22C2171.83 1887.54 2110.2 1868.86 2096.21 1850.23C2075.55 1822.69 2083.99 1739.97 2090.86 1693.1C2093.68 1673.84 2110.05 1659.46 2129.51 1659.04Z" />
					</g>
					<g id="&lt;Group&gt;" style="opacity: 0.349">
						<path id="&lt;Path&gt;" class="shp1" d="M2236.63 1866.22C2171.81 1887.53 2110.21 1868.87 2096.2 1850.21C2082.98 1832.59 2081.67 1792.4 2084.24 1753.42C2085.94 1758.25 2088.03 1762.42 2090.55 1765.77C2104.56 1784.39 2166.16 1803.05 2230.97 1781.74C2261.95 1771.56 2273.17 1723.01 2276.43 1675.12C2280.04 1680.82 2282.3 1687.47 2282.61 1694.69C2285.09 1751.24 2282.7 1851.08 2236.63 1866.22Z" />
					</g>
					<g id="&lt;Group&gt;">
						<path id="&lt;Compound Path&gt;" fill-rule="evenodd" class="shp1" d="M2177.7 1891.91C2132.87 1891.91 2096 1877.02 2083.22 1859.98C2064.77 1835.4 2061.94 1778.46 2074.78 1690.74C2078.77 1663.56 2101.63 1643.4 2129.16 1642.8L2241.46 1640.37C2271.58 1639.54 2297.5 1663.76 2298.83 1693.98C2302.16 1769.93 2294.95 1864.14 2241.72 1881.65C2219.75 1888.88 2197.92 1891.91 2177.7 1891.91ZM2129.87 1675.28C2118.25 1675.54 2108.61 1684.02 2106.93 1695.45C2094.1 1783.05 2099.7 1827.8 2109.21 1840.48C2118.04 1852.25 2171.87 1870.44 2231.57 1850.79C2256.87 1842.47 2270.21 1782.92 2266.36 1695.4C2265.81 1682.68 2254.94 1672.58 2242.17 1672.85L2129.87 1675.28Z" />
					</g>
					<g id="&lt;Group&gt;">
						<path id="&lt;Path&gt;" class="shp0" d="M1907.06 1025.86L1907.06 2003.77L1384.65 1768.95L1382.78 1645.19L1373.47 1025.86L1907.06 1025.86Z" />
					</g>
					<g id="&lt;Group&gt;" style="opacity: 0.349">
						<path id="&lt;Path&gt;" class="shp1" d="M1633.38 1888.75C1739.93 1732.22 1755.49 1579.92 1680.05 1431.88C1604.62 1283.83 1536.25 1342.09 1474.96 1606.66L1633.38 1888.75Z" />
					</g>
					<g id="&lt;Group&gt;">
						<g id="&lt;Group&gt;">
							<path id="&lt;Path&gt;" class="shp0" d="M1626.66 1791.48L1450.4 1777.48L1475.49 1461.63L1651.74 1475.63L1626.66 1791.48Z" />
						</g>
						<g id="&lt;Group&gt;" style="opacity: 0.349">
							<path id="&lt;Path&gt;" class="shp1" d="M1626.66 1791.48L1450.4 1777.48L1475.49 1461.63L1651.74 1475.63L1626.66 1791.48Z" />
						</g>
						<g id="&lt;Group&gt;">
							<path id="&lt;Compound Path&gt;" fill-rule="evenodd" class="shp1" d="M1626.68 1807.72C1626.24 1807.72 1625.81 1807.71 1625.37 1807.67L1449.12 1793.67C1444.82 1793.33 1440.84 1791.3 1438.04 1788.02C1435.25 1784.74 1433.87 1780.49 1434.21 1776.19L1459.29 1460.34C1459.63 1456.05 1461.67 1452.07 1464.94 1449.27C1468.22 1446.48 1472.47 1445.09 1476.77 1445.44L1653.03 1459.44C1661.97 1460.15 1668.65 1467.97 1667.94 1476.92L1642.85 1792.76C1642.18 1801.27 1635.07 1807.72 1626.68 1807.72ZM1467.88 1762.57L1611.75 1774L1634.26 1490.54L1490.39 1479.11L1467.88 1762.57Z" />
						</g>
					</g>
					<g id="&lt;Group&gt;">
						<path id="&lt;Path&gt;" class="shp2" d="M111.46 718.18L128.33 891.36L266.27 2308.27C266.04 2345.13 355.7 2378.45 494.9 2400.08C594.73 2415.7 720.07 2425.24 856.28 2426C992.42 2426.72 1117.86 2418.42 1217.71 2403.88C1357.24 2383.67 1447.09 2351.3 1447.24 2314.41L1603.54 865.9L1618.61 726.04L111.46 718.18Z" />
					</g>
					<g id="&lt;Group&gt;" style="opacity: 0.4">
						<path id="&lt;Path&gt;" class="shp0" d="M515.89 1549.66L427.8 1557.36C383.05 1561.27 343.61 1528.17 339.69 1483.42L311.33 1159.09C307.42 1114.35 340.52 1074.9 385.27 1070.99L473.36 1063.29C518.11 1059.37 557.55 1092.48 561.47 1137.22L589.83 1461.55C593.74 1506.3 560.64 1545.74 515.89 1549.66Z" />
					</g>
					<g id="&lt;Group&gt;" style="opacity: 0.6">
						<path id="&lt;Path&gt;" class="shp0" d="M544.89 2401.04C405.7 2379.41 316.04 2346.09 316.27 2309.23L178.33 892.32L161.46 719.15L1618.53 726.74L1618.61 726.04L111.46 718.18L128.33 891.36L266.27 2308.27C266.04 2345.12 355.7 2378.45 494.89 2400.08C590.38 2415.02 709.21 2424.38 838.54 2425.83C728.64 2422.8 627.93 2414.04 544.89 2401.04Z" />
					</g>
					<g id="&lt;Group&gt;" style="opacity: 0.349">
						<path id="&lt;Path&gt;" class="shp1" d="M1557.79 1290.08L1556.52 1301.92L1524.81 1595.42L1524.46 1598.77L1508.24 1749.03L1493.75 1883.27L1469.56 2107.26L1455.82 2234.63L1447.2 2314.42C1447.07 2351.26 1357.2 2383.76 1217.69 2403.9C1117.81 2418.34 992.44 2426.69 856.28 2425.91C803.43 2425.69 752.01 2424.13 703.33 2421.26C626.55 2416.91 555.9 2409.64 495 2399.98C355.66 2378.49 266.01 2345.17 266.27 2308.19L264.05 2285.53C294.07 2293.1 328.74 2299.93 367.15 2305.85C428.05 2315.5 498.7 2322.77 575.52 2327.12C624.16 2329.99 675.62 2331.55 728.43 2331.77C864.63 2332.56 990 2324.2 1089.88 2309.76C1229.35 2289.62 1319.27 2257.12 1319.4 2220.28L1319.4 2220.28C1323.04 2186.53 1290.56 2160.65 1258.31 2171.23C1239.32 2177.46 1221.01 2181.7 1204.81 2182.65C1055.73 2191.31 915.31 2101.04 955.9 1991.5C956.59 1989.68 957.33 1987.85 958.2 1986.11C958.6 1985.24 959.03 1984.37 959.51 1983.54C959.94 1982.67 960.42 1981.85 960.94 1981.02C961.9 1979.37 962.95 1977.76 964.08 1976.19C965.21 1974.62 966.38 1973.1 967.64 1971.62C968.25 1970.88 968.91 1970.14 969.56 1969.45C972.17 1966.53 975 1963.84 978.08 1961.31C978.74 1960.75 979.43 1960.18 980.13 1959.62C980.87 1959.05 981.61 1958.49 982.35 1957.92C983.3 1957.22 984.26 1956.53 985.26 1955.83C1037.99 1919.29 1134.86 1919.55 1139.74 1910.59C1210.99 1780.78 1283.16 1721.23 1356.68 1710.44C1362.64 1709.57 1368.6 1709 1374.6 1708.79L1383.95 1622.31C1221.21 1637.92 1131.08 1586.81 1096.8 1555.75C1011.8 1478.75 1009.67 1369.13 1029.5 1342.24C1042.51 1324.54 1067.65 1308.31 1092.88 1307.57C1127.73 1306.61 1162.92 1313.97 1198.29 1322.06L1253.93 1334.19C1292.08 1341.42 1356.9 1343.98 1395.83 1339.46C1402.35 1338.72 1408.62 1337.85 1414.75 1336.94C1478.53 1327.15 1521.2 1308.14 1557.79 1290.08Z" />
					</g>
					<g id="&lt;Group&gt;">
						<path id="&lt;Compound Path&gt;" fill-rule="evenodd" class="shp1" d="M872.59 2442.28C867.13 2442.28 861.65 2442.26 856.16 2442.24C722.92 2441.54 597.14 2432.53 492.41 2416.16C332.41 2391.29 250.88 2355.28 250.02 2309.12L95.31 719.78C94.86 715.21 96.37 710.66 99.47 707.26C102.55 703.88 106.91 701.96 111.47 701.96C111.5 701.96 111.53 701.96 111.56 701.96L1618.71 709.78C1623.31 709.81 1627.68 711.78 1630.74 715.21C1633.81 718.64 1635.28 723.2 1634.78 727.77L1463.52 2315.42C1462.19 2361.59 1380.3 2396.75 1220.08 2419.94C1119.59 2434.59 999.75 2442.28 872.59 2442.28ZM129.38 734.55L282.43 2306.69C282.48 2307.24 282.51 2307.8 282.51 2308.35C282.44 2320.11 320.94 2356.63 497.41 2384.06C600.58 2400.18 724.69 2409.06 856.33 2409.75C988.14 2410.49 1112.16 2402.84 1215.4 2387.79C1392.13 2362.21 1430.98 2326.07 1431.04 2314.31C1431.05 2313.76 1431.08 2313.2 1431.14 2312.65L1600.55 742.18L129.38 734.55Z" />
					</g>
					<g id="&lt;Group&gt;">
						<path id="&lt;Path&gt;" class="shp3" d="M65.07 384.28C64.81 434.36 186.4 479.53 375.49 508.98C510.96 530.1 681.16 543.11 866 544.07C1050.84 545.02 1221.16 533.78 1356.85 514.07C1546.23 486.59 1668.22 442.68 1668.48 392.6C1668.92 306.72 1310.36 235.18 867.61 232.88C424.81 230.59 65.51 298.4 65.07 384.28Z" />
					</g>
					<g id="&lt;Group&gt;">
						<path id="&lt;Path&gt;" class="shp3" d="M1668.5 392.6C1668.24 442.67 1546.21 486.57 1356.85 514.06C1221.17 533.77 1050.82 545.03 865.98 544.08C787.9 543.69 712.42 541.12 641.12 536.72C578.44 532.85 518.97 527.55 463.72 520.98C432.92 517.37 403.47 513.32 375.5 508.97C286.06 495.05 211.76 477.61 158.25 457.77C98.66 435.71 64.94 410.7 65.07 384.3C65.25 348.62 127.24 316.08 231.38 290.42C231.41 290.42 231.42 290.42 231.42 290.42C378.15 254.18 608.58 231.56 867.63 232.87C1310.35 235.17 1668.93 306.73 1668.5 392.6Z" />
					</g>
					<g id="&lt;Group&gt;">
						<path id="&lt;Path&gt;" class="shp4" d="M1668.5 392.6C1668.24 442.67 1546.21 486.57 1356.85 514.06C1221.17 533.77 1050.82 545.03 865.98 544.08C787.9 543.69 712.42 541.12 641.12 536.72C578.44 532.85 518.97 527.55 463.72 520.98C432.92 517.37 403.47 513.32 375.5 508.97C286.06 495.05 211.76 477.61 158.25 457.77C98.66 435.71 64.94 410.7 65.07 384.3C65.2 358.59 97.48 334.49 154.56 313.43C176.61 305.25 202.36 297.55 231.38 290.42C231.41 290.42 231.42 290.42 231.42 290.42C378.15 254.18 608.58 231.56 867.63 232.87C1132.04 234.26 1366.42 260.32 1512.24 299.38C1610.6 325.74 1668.67 358.02 1668.5 392.6Z" />
					</g>
					<g id="&lt;Group&gt;" style="opacity: 0.349">
						<path id="&lt;Path&gt;" class="shp1" d="M1536.73 340.79C1536.51 390.86 1430.94 434.76 1267.06 462.25C1149.65 481.96 1002.27 493.22 842.32 492.27C774.76 491.87 709.46 489.31 647.73 484.91C593.49 481.04 542.07 475.74 494.26 469.17C467.59 465.56 442.1 461.51 417.91 457.16C340.53 443.24 276.23 425.8 229.9 405.96C178.35 383.9 149.16 358.89 149.29 332.48C149.34 326 151.12 319.65 154.56 313.43C176.61 305.25 202.36 297.55 231.38 290.42C231.41 290.42 231.42 290.42 231.42 290.42C378.15 254.18 608.58 231.56 867.63 232.87C1132.04 234.26 1366.42 260.32 1512.24 299.38C1528.25 312.6 1536.77 326.53 1536.73 340.79Z" />
					</g>
					<g id="&lt;Group&gt;">
						<path id="&lt;Compound Path&gt;" fill-rule="evenodd" class="shp1" d="M888.21 560.37C880.78 560.37 873.37 560.35 865.92 560.31C685.47 559.37 515.02 547.17 372.98 525.03C224.89 501.97 48.44 458.82 48.82 384.2C48.82 384.2 48.82 384.2 48.82 384.2C49.09 332.56 132.74 290.63 297.44 259.55C450.03 230.76 652.55 215.55 867.7 216.64C1082.82 217.75 1285.15 235.1 1437.42 265.47C1601.78 298.25 1684.99 341.05 1684.72 392.69C1684.34 467.31 1507.48 508.63 1359.18 530.14C1222.79 549.96 1060.36 560.37 888.21 560.37ZM81.31 384.37C81.19 407.51 143.54 456.42 377.99 492.92C518.45 514.82 687.23 526.89 866.08 527.82C1045.05 528.76 1213.81 518.44 1354.51 497.99C1589.28 463.93 1652.12 415.66 1652.23 392.52C1652.36 368.98 1594.5 329.93 1431.06 297.33C1280.77 267.35 1080.64 250.23 867.53 249.13C654.37 248.01 454.07 263.06 303.47 291.48C139.69 322.38 81.43 360.83 81.31 384.37L81.31 384.37Z" />
					</g>
					<g id="&lt;Group&gt;">
						<path id="&lt;Path&gt;" class="shp3" d="M16.2 641.63C15.73 732.66 395.58 808.46 864.58 810.89C1333.59 813.33 1714.2 741.48 1714.67 650.44L1712.54 638.37L1668.45 392.6C1668.19 442.68 1546.2 486.59 1356.81 514.07C1221.13 533.78 1050.8 545.02 865.97 544.07C681.13 543.11 510.93 530.1 375.45 508.98C186.37 479.53 64.78 434.36 65.04 384.28L18.46 629.58L16.2 641.63Z" />
					</g>
					<g id="&lt;Group&gt;" style="opacity: 0.349">
						<path id="&lt;Path&gt;" class="shp1" d="M1618.6 726L1603.64 865.86L1602.33 878.12L1579.71 1087.19L1561.79 1253.11L1557.79 1290.08C1521.2 1308.14 1478.53 1327.15 1414.75 1336.94L1428.67 1207.78L1436.2 1138C1430.85 1131.26 1425.71 1124.39 1420.76 1117.43C1380.17 1060.53 1352.28 997.36 1337.15 931.85C1201.99 948.77 1039.42 958.17 864.63 957.25C781.07 956.82 700.37 954.08 624.11 949.29C553.03 944.86 485.86 938.72 423.92 931.07C347.96 921.71 279.84 910.1 222.07 896.79C189.88 889.39 160.86 881.43 135.46 873.08C132.33 872.03 129.24 870.99 126.24 869.95L111.49 718.21L1331.01 724.52L1480.79 725.3L1618.6 726Z" />
					</g>
					<g id="&lt;Group&gt;">
						<path id="&lt;Path&gt;" class="shp4" d="M1714.65 650.44C1714.26 741.44 1333.58 813.35 864.63 810.87C781.07 810.44 700.37 807.7 624.11 802.91C553.03 798.47 485.86 792.34 423.92 784.68C347.96 775.33 279.84 763.72 222.07 750.4C189.88 743.01 160.86 735.05 135.46 726.7C59.55 701.6 16.05 672.49 16.22 641.61L18.44 629.6L43.11 499.88L65.07 384.25C64.9 413.4 105.97 440.89 177.48 464.56C202.71 472.91 231.77 480.78 264.14 488.09C297.81 495.7 335.09 502.71 375.46 508.97C402.25 513.15 430.36 516.98 459.72 520.5C516.92 527.37 578.7 532.9 643.86 536.86C714.38 541.21 788.9 543.69 865.98 544.08C1050.77 544.99 1221.13 533.77 1356.85 514.06C1546.21 486.61 1668.15 442.63 1668.5 392.6L1690.6 516.02L1712.56 638.34L1714.65 650.44Z" />
					</g>
					<g id="&lt;Group&gt;" style="opacity: 0.349">
						<path id="&lt;Path&gt;" class="shp1" d="M1714.65 650.44C1665.94 842.78 523.03 843.83 188.75 742.23C374.99 756.03 738.69 791.12 1011.21 763.75C1203.58 744.43 1433.56 642.96 1360.2 513.58C1547.65 486.09 1668.15 442.33 1668.5 392.6C1680.52 460.23 1702.67 582.59 1714.65 650.44Z" />
					</g>
					<g id="&lt;Group&gt;" style="opacity: 0.4">
						<path id="&lt;Path&gt;" class="shp5" d="M627.85 535.43L624.11 802.91C553.03 798.47 485.86 792.34 423.92 784.68L459.72 520.5L627.85 535.43Z" />
					</g>
					<g id="&lt;Group&gt;" style="opacity: 0.6">
						<path id="&lt;Path&gt;" class="shp5" d="M177.48 464.56L135.46 726.7C59.55 701.6 16.05 672.49 16.22 641.61L18.44 629.6L43.11 499.88L65.07 384.25C64.9 413.4 105.97 440.89 177.48 464.56Z" />
					</g>
					<g id="&lt;Group&gt;">
						<path id="&lt;Compound Path&gt;" fill-rule="evenodd" class="shp1" d="M887.84 827.2C880.07 827.2 872.3 827.18 864.5 827.14C636.66 825.96 422.4 807.59 261.16 775.42C87.56 740.78 -0.32 695.74 -0.04 641.54C-0.04 640.57 0.06 639.59 0.24 638.63L2.5 626.58L49.07 381.25C50.64 373 58.29 367.28 66.6 368.11C74.96 368.92 81.33 375.97 81.28 384.37C81.16 407.51 143.51 456.42 377.96 492.92C518.43 514.82 687.2 526.89 866.05 527.82C1044.95 528.75 1213.79 518.44 1354.48 497.99C1589.24 463.93 1652.08 415.66 1652.2 392.52C1652.24 384.12 1658.68 377.14 1667.05 376.42C1675.43 375.7 1682.95 381.47 1684.44 389.73L1730.67 647.61C1730.84 648.57 1730.92 649.55 1730.92 650.53C1730.63 704.72 1642.29 748.85 1468.34 781.68C1312.31 811.13 1106.94 827.2 887.84 827.2ZM32.49 642.93C34.29 668.36 96.55 709.44 267.52 743.56C426.78 775.33 638.85 793.48 864.67 794.65C1090.59 795.9 1302.74 779.88 1462.31 749.75C1633.63 717.42 1696.31 676.98 1698.37 651.57L1696.54 641.19L1660.09 438.04C1606.38 484.86 1474.17 513.45 1359.15 530.14C1216.88 550.81 1046.24 561.24 865.88 560.31C685.44 559.37 514.99 547.17 372.95 525.03C258.1 507.14 126.17 477.17 72.93 429.81L32.49 642.93Z" />
					</g>
					<g id="&lt;Group&gt;">
						<path id="&lt;Path&gt;" class="shp3" d="M269.35 130.11C269.16 167.51 359.97 201.25 501.18 223.24C602.36 239.01 729.47 248.73 867.52 249.45C1005.56 250.16 1132.77 241.77 1234.1 227.04C1375.54 206.52 1466.65 173.72 1466.84 136.33C1467.18 72.18 1199.38 18.76 868.72 17.04C538.02 15.33 269.68 65.97 269.35 130.11Z" />
					</g>
					<g id="&lt;Group&gt;">
						<path id="&lt;Path&gt;" class="shp4" d="M1466.82 136.34C1466.74 155.82 1441.94 174.05 1398.14 189.97C1357.98 204.55 1301.78 217.21 1234.09 227.04C1132.78 241.78 1005.58 250.18 867.5 249.44C729.47 248.74 602.36 239 501.18 223.25C433.88 212.77 378.02 199.63 338 184.67C294.07 168.27 269.23 149.69 269.36 130.12C269.7 65.95 538.02 15.32 868.72 17.06C1199.38 18.75 1467.17 72.17 1466.82 136.34Z" />
					</g>
					<g id="&lt;Group&gt;" style="opacity: 0.6">
						<path id="&lt;Path&gt;" class="shp5" d="M1466.82 136.34C1466.78 141.95 1464.74 147.47 1460.69 152.87C1418.93 96.49 1169.88 52.03 868.72 50.46C566.99 48.9 317.21 90.88 275.49 146.99C271.4 141.47 269.31 135.86 269.36 130.12C269.7 65.95 538.02 15.32 868.72 17.06C1199.38 18.75 1467.17 72.17 1466.82 136.34Z" />
					</g>
					<g id="&lt;Group&gt;" style="opacity: 0.349">
						<path id="&lt;Path&gt;" class="shp1" d="M1398.18 189.5C1398.18 189.67 1398.18 189.8 1398.14 189.97C1357.98 204.55 1301.78 217.21 1234.09 227.04C1132.78 241.78 1005.58 250.18 867.5 249.44C729.47 248.74 602.36 239 501.18 223.25C433.88 212.77 378.02 199.63 338 184.67L338 183.97C338.31 127.2 575.87 82.35 868.63 83.87C1161.4 85.4 1398.48 132.68 1398.18 189.5Z" />
					</g>
					<g id="&lt;Group&gt;">
						<path id="&lt;Compound Path&gt;" fill-rule="evenodd" class="shp1" d="M884.07 265.74C878.53 265.74 873 265.72 867.43 265.69C732.49 264.99 604.97 255.86 498.68 239.29C335.49 213.88 252.86 177.12 253.11 130.03C253.32 88.64 315.15 56.88 442.14 32.92C556.34 11.37 707.96 -0.1 868.81 0.8C1029.72 1.63 1181.11 14.61 1295.08 37.34C1421.8 62.62 1483.3 95.02 1483.09 136.41C1482.84 183.5 1399.86 219.41 1236.44 243.12C1134.38 257.95 1012.86 265.73 884.07 265.74ZM852.31 33.24C699.5 33.24 556.54 44.4 448.16 64.84C319.71 89.08 285.66 118.19 285.6 130.2C285.6 130.2 285.6 130.2 285.6 130.2C285.51 147.48 343.51 182.25 503.68 207.19C608.41 223.52 734.25 232.51 867.6 233.2C1001.06 233.9 1126.9 226.2 1231.77 210.96C1392.16 187.69 1450.51 153.53 1450.6 136.24C1450.66 124.24 1416.91 94.77 1288.73 69.2C1176.73 46.87 1027.54 34.11 868.64 33.29C863.19 33.26 857.73 33.24 852.31 33.24ZM269.35 130.12L269.4 130.12L269.35 130.12Z" />
					</g>
					<g id="&lt;Group&gt;">
						<path id="&lt;Path&gt;" class="shp3" d="M413.43 212.43C413.28 240.8 482.18 266.4 589.31 283.08C666.07 295.05 762.51 302.42 867.24 302.96C971.96 303.5 1068.47 297.13 1145.35 285.96C1252.65 270.39 1321.77 245.51 1321.92 217.14C1322.17 168.48 1119.01 127.95 868.15 126.64C617.26 125.34 413.68 163.77 413.43 212.43Z" />
					</g>
					<g id="&lt;Group&gt;" style="opacity: 0.349">
						<path id="&lt;Path&gt;" class="shp1" d="M413.43 212.43C413.28 240.8 482.18 266.4 589.31 283.08C666.07 295.05 762.51 302.42 867.24 302.96C971.96 303.5 1068.47 297.13 1145.35 285.96C1252.65 270.39 1321.77 245.51 1321.92 217.14C1322.17 168.48 1119.01 127.95 868.15 126.64C617.26 125.34 413.68 163.77 413.43 212.43Z" />
					</g>
					<g id="&lt;Group&gt;">
						<path id="&lt;Compound Path&gt;" fill-rule="evenodd" class="shp1" d="M879.83 319.24C875.61 319.24 871.39 319.23 867.15 319.2C764.57 318.67 667.63 311.73 586.81 299.13C531.28 290.48 486.99 279.76 455.2 267.25C416.05 251.86 397.07 233.9 397.19 212.34C397.36 178.77 445.31 153.42 543.79 134.84C630.67 118.44 745.89 109.74 868.24 110.4C1030.96 111.25 1338.59 134.66 1338.17 217.22C1338.05 238.78 1318.89 256.55 1279.61 271.53C1247.69 283.7 1203.3 293.97 1147.68 302.04C1070.08 313.32 977.71 319.24 879.83 319.24ZM855.66 142.86C739.98 142.86 631.79 151.29 549.81 166.76C450.16 185.56 429.7 207.63 429.68 212.51C429.64 218.69 457.07 246.05 591.81 267.03C671.07 279.39 766.34 286.19 867.32 286.71C968.26 287.27 1063.65 281.42 1143.02 269.89C1277.94 250.31 1305.64 223.23 1305.68 217.06C1305.7 212.18 1285.47 189.9 1186.02 170.06C1101.3 153.16 988.38 143.51 868.07 142.89C863.92 142.87 859.78 142.86 855.66 142.86ZM413.43 212.43L413.48 212.43L413.43 212.43Z" />
					</g>
					<g id="&lt;Group&gt;">
						<path id="&lt;Path&gt;" class="shp3" d="M232.86 322.31C232.5 390.3 516.19 446.91 866.46 448.72C1216.73 450.54 1500.99 396.88 1501.34 328.89L1499.75 319.87L1466.82 136.33C1466.63 173.72 1375.52 206.52 1234.08 227.04C1132.74 241.77 1005.54 250.16 867.49 249.45C729.45 248.73 602.34 239.01 501.16 223.24C359.94 201.25 269.13 167.51 269.33 130.11L234.55 313.31L232.86 322.31Z" />
					</g>
					<g id="&lt;Group&gt;">
						<path id="&lt;Path&gt;" class="shp4" d="M1501.36 328.87C1500.97 396.91 1216.73 450.55 866.46 448.72C821.87 448.5 778.37 447.37 736.39 445.41C666.92 442.28 601.66 436.93 542.63 429.84C463.77 420.31 396.03 407.57 344.14 392.69C273.84 372.46 232.77 348.23 232.9 322.31L234.56 313.3L251.74 222.56L269.27 130.2C269.27 154.91 308.94 178.01 376.68 197.24C411.35 207.03 453.37 215.86 501.18 223.3C522.62 226.6 545.2 229.65 568.82 232.43C620.54 238.48 677.14 243.09 737.22 246C779.15 248.05 822.74 249.22 867.5 249.44C1005.58 250.18 1132.73 241.74 1234.05 227.08C1375.51 206.5 1466.65 173.7 1466.78 136.34L1481.79 219.6L1499.8 319.87L1501.36 328.87Z" />
					</g>
					<g id="&lt;Group&gt;" style="opacity: 0.349">
						<path id="&lt;Path&gt;" class="shp1" d="M1501.36 328.87C1500.97 396.91 1216.73 450.55 866.46 448.72C821.87 448.5 778.37 447.37 736.39 445.41C700.98 443.81 666.66 441.63 633.68 438.93C658.83 439.67 684.45 440.11 710.46 440.24C1060.74 442.07 1344.98 388.43 1345.37 320.39L1343.8 311.39L1325.79 211.12L1325.66 210.51C1413.62 190.67 1466.69 164.83 1466.78 136.34L1481.79 219.6L1499.8 319.87L1501.36 328.87Z" />
					</g>
					<g id="&lt;Group&gt;" style="opacity: 0.4">
						<path id="&lt;Path&gt;" class="shp5" d="M737.22 246L736.39 445.41C666.92 442.28 601.66 436.93 542.63 429.84L568.82 232.43C620.54 238.48 677.14 243.09 737.22 246Z" />
					</g>
					<g id="&lt;Group&gt;" style="opacity: 0.6">
						<path id="&lt;Path&gt;" class="shp5" d="M376.68 197.24L344.14 392.69C273.84 372.46 232.77 348.23 232.9 322.31L234.56 313.3L251.74 222.56L269.27 130.2C269.27 154.91 308.94 178.01 376.68 197.24Z" />
					</g>
					<g id="&lt;Group&gt;">
						<path id="&lt;Compound Path&gt;" fill-rule="evenodd" class="shp1" d="M883.82 465.01C878.02 465.01 872.2 465 866.38 464.97C604.9 463.61 216.08 424.48 216.61 322.23C216.61 321.25 216.71 320.27 216.89 319.31L218.58 310.31L253.37 127.09C254.94 118.83 262.58 113.12 270.89 113.95C279.25 114.75 285.62 121.8 285.57 130.2C285.48 147.48 343.49 182.25 503.66 207.19C608.39 223.52 734.23 232.51 867.58 233.2C1001.06 233.9 1126.87 226.2 1231.75 210.96C1392.14 187.69 1450.49 153.53 1450.57 136.24C1450.62 127.84 1457.05 120.86 1465.42 120.14C1473.74 119.44 1481.33 125.19 1482.81 133.46L1517.34 326.07C1517.51 327.03 1517.59 328 1517.59 328.98C1517.36 372.3 1452.12 405.66 1318.13 430.95C1201.36 452.99 1047.71 465.01 883.82 465.01ZM249.16 323.48C250.91 337.91 288.65 367.92 421.35 394.4C540.05 418.08 698.15 431.61 866.55 432.48C1034.91 433.33 1193.18 421.47 1312.11 399.02C1445.09 373.92 1483.13 344.3 1485.02 329.89L1483.75 322.7L1457.78 177.93C1421.87 205.12 1347.84 226.95 1236.41 243.12C1129.96 258.58 1002.33 266.39 867.41 265.69C732.47 264.99 604.95 255.86 498.66 239.29C387.39 221.96 313.58 199.37 277.95 171.81L249.16 323.48Z" />
					</g>
					<g id="&lt;Group&gt;">
						<g id="&lt;Group&gt;">
							<path id="&lt;Path&gt;" class="shp6" d="M1039.71 1703.05C999.58 1621.99 939.09 1557.17 876.32 1493.4C843.35 1459.99 814.32 1424.76 790 1387.27C756.86 1336.23 732.44 1281.16 719.09 1221.19C715.68 1206.19 712.96 1190.8 711.13 1175.16C708.47 1154.38 707.13 1133.17 707.15 1111.35C707.13 1088.49 713.76 1078.3 736.53 1073.48C778.49 1064.63 818.82 1065.34 857.43 1074.64C857.47 1074.68 857.49 1074.69 857.49 1074.69C885.82 1081.43 913.24 1092.94 939.73 1108.57C1133.82 1223.27 1250.26 1483.96 1206.02 1705.26C1190.15 1784.9 1158.52 1857.02 1087.61 1910.09C1088.68 1834.81 1071.52 1767.2 1039.71 1703.05Z" />
						</g>
						<g id="&lt;Group&gt;">
							<path id="&lt;Path&gt;" class="shp6" d="M615.1 1131.9C616.78 1238.19 645.09 1329.94 692.73 1411.61C730.33 1476.22 780.06 1534.49 838.03 1588.68C867.99 1616.64 893.46 1649.04 916.42 1683.21C966.59 1757.91 998.47 1838.3 996.16 1930.38C995.56 1954.89 986.46 1965.57 963.07 1970.53C889.05 1986.29 820.07 1972.06 756.39 1934.58C626.73 1858.12 533.71 1715.15 499.46 1562.36C482.57 1487.29 479.84 1409.81 494.02 1336.67C494.1 1336.02 494.17 1335.37 494.36 1334.71C497.47 1318.79 501.42 1303.09 506.16 1287.68C525.04 1226.57 556.91 1172.53 615.1 1131.9Z" />
						</g>
					</g>
					<g id="&lt;Group&gt;" style="opacity: 0.302">
						<g id="&lt;Group&gt;">
							<path id="&lt;Path&gt;" class="shp7" d="M158.35 1199.81C158.1 1208.01 158.77 1216.49 160.84 1225.05L158.35 1199.81Z" />
						</g>
					</g>
					<g id="&lt;Group&gt;">
						<path id="&lt;Path&gt;" class="shp0" d="M2096.07 1707.13C2096.07 1709.44 2096.03 1711.74 2095.94 1714.05C2095.9 1716.31 2095.86 1718.57 2095.77 1720.79C2095.68 1723.93 2095.6 1727.06 2095.47 1730.15C2095.33 1733.67 2095.16 1737.19 2094.99 1740.63C2094.72 1746.29 2094.38 1751.9 2093.99 1757.38C2093.77 1760.34 2093.55 1763.25 2093.33 1766.17C2092.94 1771.12 2092.51 1776.04 2092.03 1780.87C2091.77 1783.48 2091.46 1786.05 2091.2 1788.61C2090.9 1791.57 2090.55 1794.53 2090.16 1797.44C2089.55 1802.84 2088.81 1808.19 2088.07 1813.41C2087.81 1815.15 2087.55 1816.89 2087.29 1818.63C2085.94 1827.46 2084.46 1836.03 2082.85 1844.34C2082.28 1847.25 2081.72 1850.12 2081.11 1852.99C2080.5 1855.82 2079.93 1858.65 2079.28 1861.39C2077.85 1867.83 2076.32 1874.05 2074.76 1880.14C2074.15 1882.53 2073.5 1884.88 2072.84 1887.19C2072.63 1888.01 2072.41 1888.8 2072.19 1889.62C2071.19 1893.15 2070.19 1896.58 2069.15 1899.98C2066.32 1909.33 2063.27 1918.33 2060.05 1926.9C2059.4 1928.69 2058.75 1930.47 2058.05 1932.25C2057.49 1933.69 2056.97 1935.08 2056.4 1936.43C2055.53 1938.65 2054.62 1940.82 2053.7 1943C2052.92 1944.91 2052.14 1946.78 2051.31 1948.65C2048.27 1955.61 2045.13 1962.31 2041.87 1968.66C2041.04 1970.32 2040.22 1971.93 2039.35 1973.54C2038.74 1974.8 2038.09 1975.97 2037.48 1977.1C2036.61 1978.76 2035.69 1980.37 2034.82 1981.93C2033.91 1983.59 2032.95 1985.24 2032.04 1986.81C2031.13 1988.41 2030.17 1989.98 2029.21 1991.55C2022.95 2001.99 2016.38 2011.56 2009.68 2020.34C2008.81 2021.52 2007.94 2022.65 2007.03 2023.74C2004.16 2027.44 2001.24 2030.96 1998.28 2034.35C1997.63 2035.14 1996.98 2035.92 1996.28 2036.66C1982.49 2052.32 1968.18 2065.06 1954.04 2075.42C1952.21 2076.77 1950.43 2078.03 1948.6 2079.29C1948.08 2079.68 1947.52 2080.07 1946.95 2080.42C1945.82 2081.2 1944.69 2081.94 1943.6 2082.68C1939.99 2085.08 1936.42 2087.29 1932.9 2089.38C1800.63 2167.45 1641.76 2143.77 1456.3 2018.34C1362.16 2081.13 1287.03 2114.15 1230.92 2117.4C1081.84 2126.05 941.41 2035.79 982 1926.25C982.7 1924.42 983.43 1922.6 984.3 1920.86C984.7 1919.99 985.13 1919.12 985.61 1918.29C986.05 1917.42 986.52 1916.59 987.05 1915.77C988 1914.11 989.05 1912.5 990.18 1910.94C991.31 1909.37 992.48 1907.85 993.74 1906.37C994.35 1905.63 995.01 1904.89 995.66 1904.2C998.27 1901.28 1001.1 1898.58 1004.18 1896.06C1004.84 1895.5 1005.53 1894.93 1006.23 1894.36C1006.97 1893.8 1007.71 1893.23 1008.45 1892.67C1009.4 1891.97 1010.36 1891.28 1011.36 1890.58C1064.09 1854.04 1160.96 1854.3 1165.84 1845.34C1237.09 1715.53 1309.26 1655.98 1382.78 1645.19C1450.9 1635.14 1520.2 1667.03 1591.06 1723.71C1591.15 1723.79 1591.24 1723.84 1591.28 1723.93C1592.63 1724.97 1594.02 1726.1 1595.37 1727.19C1595.46 1727.23 1595.54 1727.32 1595.63 1727.41C1604.64 1734.76 1613.69 1742.46 1622.73 1750.55C1643.9 1768.99 1661.58 1784.55 1675.76 1797.23L1690.42 1760.99L1745.23 1625.61L1865.21 1329.28L1907.06 1225.88L1974.92 1058.26C2003.89 1148.92 2026.91 1231.88 2044.7 1307.7C2076.32 1442.34 2091.72 1554.62 2095.33 1648.28C2095.51 1653.28 2095.68 1658.19 2095.81 1663.11C2095.94 1667.29 2096.03 1671.46 2096.07 1675.6C2096.2 1686.38 2096.2 1696.91 2096.07 1707.13Z" />
					</g>
					<g id="&lt;Group&gt;" style="opacity: 0.349">
						<path id="&lt;Path&gt;" class="shp1" d="M2096.07 1707.13C2096.07 1709.44 2096.03 1711.74 2095.94 1714.05C2095.9 1716.31 2095.86 1718.57 2095.77 1720.79C2095.68 1723.93 2095.6 1727.06 2095.47 1730.15C2095.33 1733.67 2095.16 1737.19 2094.99 1740.63C2094.72 1746.33 2094.38 1751.9 2093.99 1757.38C2093.77 1760.34 2093.55 1763.25 2093.33 1766.17C2092.94 1771.12 2092.51 1776.04 2092.03 1780.87C2091.77 1783.48 2091.46 1786.05 2091.2 1788.61C2090.9 1791.57 2090.55 1794.53 2090.16 1797.44C2089.55 1802.84 2088.81 1808.19 2088.07 1813.41C2087.81 1815.15 2087.55 1816.89 2087.29 1818.63C2085.94 1827.46 2084.46 1836.03 2082.85 1844.34C2082.28 1847.25 2081.72 1850.12 2081.11 1852.99C2080.5 1855.82 2079.93 1858.65 2079.28 1861.39C2077.85 1867.83 2076.32 1874.05 2074.76 1880.14C2074.15 1882.53 2073.5 1884.88 2072.84 1887.19C2072.63 1888.01 2072.41 1888.8 2072.19 1889.62C2071.19 1893.15 2070.19 1896.58 2069.15 1899.98C2066.32 1909.33 2063.27 1918.33 2060.05 1926.9C2059.4 1928.69 2058.75 1930.47 2058.05 1932.25C2057.49 1933.69 2056.97 1935.08 2056.4 1936.43C2055.53 1938.65 2054.62 1940.82 2053.7 1943C2052.92 1944.91 2052.14 1946.78 2051.31 1948.65C2048.27 1955.61 2045.13 1962.31 2041.87 1968.66C2041.04 1970.32 2040.22 1971.93 2039.35 1973.54C2038.74 1974.8 2038.09 1975.97 2037.48 1977.1C2036.61 1978.76 2035.69 1980.37 2034.82 1981.93C2033.91 1983.59 2032.95 1985.24 2032.04 1986.81C2031.13 1988.41 2030.17 1989.98 2029.21 1991.55C2022.95 2001.99 2016.38 2011.56 2009.68 2020.34C2008.81 2021.52 2007.94 2022.65 2007.03 2023.74C2004.16 2027.44 2001.24 2030.96 1998.28 2034.35C1997.63 2035.14 1996.98 2035.92 1996.28 2036.66C1982.49 2052.32 1968.18 2065.06 1954.04 2075.42C1952.21 2076.77 1950.43 2078.03 1948.6 2079.29C1948.08 2079.68 1947.52 2080.07 1946.95 2080.42C1945.82 2081.2 1944.69 2081.94 1943.6 2082.68C1939.99 2085.08 1936.42 2087.29 1932.9 2089.38C1800.63 2167.45 1641.76 2143.77 1456.3 2018.34C1362.16 2081.13 1287.03 2114.15 1230.92 2117.4C1081.84 2126.05 941.41 2035.79 982 1926.25C982.7 1924.42 983.43 1922.6 984.3 1920.86C984.7 1919.99 985.13 1919.12 985.61 1918.29C986.05 1917.42 986.52 1916.59 987.05 1915.77C988 1914.11 989.05 1912.5 990.18 1910.94C991.31 1909.37 992.48 1907.85 993.74 1906.37C994.35 1905.63 995.01 1904.89 995.66 1904.2C998.27 1901.28 1001.1 1898.58 1004.18 1896.06C1004.84 1895.5 1005.53 1894.93 1006.23 1894.36C1006.97 1893.8 1007.71 1893.23 1008.45 1892.67C1009.4 1891.97 1010.36 1891.28 1011.36 1890.58C967.12 2032.53 1133.73 2050.23 1252.14 2043.36C1333.45 2038.66 1416.01 1865.4 1535.56 1925.95C1639.48 1981.12 1743.15 2107.09 1934.68 1994.03C1975.4 1969.97 2020.21 1924.08 2041.09 1848.47C2051.57 1810.54 2022.47 1773.21 1983.14 1774.56C1906.58 1777.21 1782.3 1777.91 1690.42 1760.99L1745.23 1625.61C1787.21 1628.48 1836.28 1632.14 1889.18 1635.18C1961.89 1639.33 2022.64 1638.07 2071.45 1631.4C2077.25 1631.19 2084.14 1631.66 2092.12 1632.79C2092.94 1632.92 2093.77 1633.05 2094.64 1633.18C2094.9 1638.27 2095.12 1643.32 2095.33 1648.28C2095.51 1653.28 2095.68 1658.19 2095.81 1663.11C2095.94 1667.29 2096.03 1671.46 2096.07 1675.6C2096.2 1686.38 2096.2 1696.91 2096.07 1707.13Z" />
					</g>
					<g id="&lt;Group&gt;" style="opacity: 0.302">
						<path id="&lt;Path&gt;" class="shp8" d="M1638.4 726L1638.4 726.04L1529.67 725.46L1638.4 726Z" />
					</g>
					<g id="&lt;Group&gt;">
						<path id="&lt;Path&gt;" class="shp1" d="M1980.09 1056.63C2008.5 1117.76 2029.32 1181.67 2047.14 1246.4C2064.67 1311.24 2078.48 1377.13 2089.34 1443.56C2100.27 1509.97 2108.39 1577.01 2111.4 1644.61C2112.53 1678.43 2112.98 1712.34 2110.81 1746.29C2108.9 1780.22 2105.33 1814.21 2098.61 1847.83C2092.02 1881.44 2082.75 1914.76 2069.57 1946.86C2066.56 1954.97 2062.53 1962.73 2058.95 1970.64C2055.24 1978.5 2050.86 1986.08 2046.77 1993.78L2039.91 2004.97L2036.47 2010.56L2032.73 2015.97L2025.19 2026.77L2017.02 2037.13C1995 2064.56 1967.75 2088.34 1936.77 2105.72C1905.87 2123.13 1871.74 2134.52 1837.04 2139.96C1802.28 2145.14 1767.15 2144.89 1732.8 2140.95C1698.47 2136.73 1664.86 2128.97 1632.19 2118.8C1599.57 2108.46 1567.8 2095.88 1537.01 2081.35C1521.61 2074.08 1506.43 2066.38 1491.5 2058.19C1476.48 2049.92 1462.04 2041.55 1447.19 2031.8L1465.31 2031.85C1438.87 2049.1 1412.25 2064.65 1384.66 2079.39C1357.08 2093.98 1328.72 2107.41 1298.68 2118.14L1287.38 2122.09L1275.74 2125.48C1268.11 2127.97 1259.83 2129.32 1251.83 2131.13C1247.78 2131.95 1243.44 2132.24 1239.26 2132.79C1235.01 2133.31 1230.78 2133.79 1226.85 2133.82C1218.83 2134.25 1210.8 2134.18 1202.77 2134.13C1170.68 2133.22 1138.66 2128.44 1107.81 2118.98C1077.03 2109.45 1047.15 2095.61 1020.78 2075.47C1007.65 2065.38 995.44 2053.65 985.15 2039.96C974.82 2026.35 966.81 2010.37 962.39 1993.18C960.05 1984.62 959.11 1975.69 958.69 1966.8C958.82 1962.36 958.77 1957.89 959.22 1953.48C959.86 1949.12 960.07 1944.63 961.19 1940.39C962.15 1936.1 963 1931.77 964.46 1927.68L966.47 1921.47C967.18 1919.38 968.29 1917.08 969.21 1914.91C973.27 1906.22 978.75 1898.26 985.15 1891.62C991.56 1885.01 998.62 1879.46 1005.92 1874.68C1013.27 1870.06 1020.83 1866.12 1028.47 1862.72C1043.78 1856.07 1059.36 1851.32 1074.9 1847.6C1090.44 1843.83 1106 1841.1 1121.33 1838.67L1143.86 1835.1C1147.49 1834.5 1151 1833.82 1153.95 1833.12L1155.88 1832.61L1156.36 1832.43L1156.61 1832.36C1156.72 1832.33 1156.8 1832.3 1156.56 1832.38C1156.25 1832.5 1155.96 1832.67 1155.71 1832.88C1155.55 1833 1155.81 1832.86 1155.31 1833.19C1154.9 1833.46 1154.49 1833.78 1154.11 1834.13C1153.35 1834.82 1152.67 1835.64 1152.14 1836.52C1151.96 1836.78 1151.46 1837.81 1151.66 1837.43L1151.84 1837.11L1152.2 1836.47L1152.93 1835.2C1168 1807.89 1184.57 1781.23 1203.16 1755.74C1221.82 1730.32 1242.6 1706 1266.95 1684.74C1291.47 1663.84 1319.66 1645.5 1351.84 1635.74C1367.82 1630.92 1384.49 1627.68 1401.28 1627.3C1418.04 1626.81 1434.71 1628.51 1450.95 1631.66C1467.14 1635.07 1482.69 1640.27 1497.82 1646.19C1512.81 1652.41 1527.29 1659.53 1541.11 1667.61C1568.72 1683.8 1593.69 1703.41 1616.64 1724.71C1628.04 1735.44 1638.74 1746.56 1649.21 1757.84C1659.64 1769.22 1669.9 1780.79 1679.38 1793.2C1681.23 1795.62 1680.77 1799.07 1678.35 1800.93C1676.52 1802.32 1674.09 1802.4 1672.22 1801.3L1672.17 1801.27C1645.3 1785.53 1620.44 1766.8 1596.58 1748.4C1572.61 1730.25 1548.48 1712.73 1523.35 1697.55C1510.77 1690.01 1497.93 1683.12 1484.75 1677.18C1471.52 1671.45 1457.91 1666.88 1444.12 1663.68C1430.31 1660.7 1416.3 1659.39 1402.4 1659.77C1388.47 1660.06 1374.77 1662.78 1361.45 1666.78C1334.7 1674.84 1310.25 1690.54 1288.23 1709.29C1266.34 1728.4 1246.97 1750.95 1229.37 1774.94C1211.82 1799 1195.92 1824.53 1181.36 1850.92L1180.66 1852.15L1180.31 1852.76L1180.14 1853.07C1180.24 1852.91 1179.53 1854.07 1179.19 1854.51C1178.33 1855.73 1177.32 1856.9 1176.22 1857.94C1175.67 1858.45 1175.1 1858.94 1174.52 1859.39C1173.86 1859.9 1173.87 1859.82 1173.51 1860.06C1172.41 1860.73 1171.28 1861.35 1170.12 1861.91C1169.46 1862.24 1169.09 1862.37 1168.75 1862.49L1167.64 1862.9L1165.41 1863.67L1161.79 1864.65C1157.28 1865.73 1153.24 1866.47 1149.32 1867.13L1126.42 1870.76C1111.45 1873.13 1096.78 1875.72 1082.51 1879.19C1068.23 1882.59 1054.39 1886.89 1041.55 1892.46C1035.19 1895.3 1029.13 1898.48 1023.49 1902.01C1017.97 1905.64 1012.95 1909.65 1008.66 1914.04C1004.4 1918.46 1001.16 1923.35 998.72 1928.51C998.17 1929.88 997.53 1931.01 997.01 1932.55L995.5 1937.28C994.34 1940.42 993.77 1943.64 993.04 1946.83C992.14 1950.01 992.11 1953.25 991.57 1956.46C991.24 1959.68 991.33 1962.9 991.18 1966.11C991.54 1972.52 992.13 1978.94 993.88 1985.18C1000.11 2010.39 1018.28 2032.68 1040.57 2049.7C1062.99 2066.86 1089.59 2079.35 1117.32 2087.91C1145.13 2096.45 1174.32 2100.81 1203.52 2101.65C1210.83 2101.68 1218.13 2101.76 1225.43 2101.36C1229.18 2101.34 1232.56 2100.9 1235.93 2100.47C1239.34 2099.99 1242.69 2099.85 1246.15 2099.14C1253.09 2097.51 1260.01 2096.49 1266.98 2094.19L1277.43 2091.16L1287.83 2087.52C1315.58 2077.61 1342.84 2064.78 1369.44 2050.68C1395.96 2036.54 1422.34 2021.09 1447.28 2004.83C1452.94 2001.13 1460.03 2001.36 1465.35 2004.85L1465.4 2004.88C1478.45 2013.46 1492.89 2021.89 1507.12 2029.7C1521.46 2037.57 1536.06 2044.97 1550.85 2051.96C1580.44 2065.92 1610.89 2077.96 1641.91 2087.8C1672.97 2097.47 1704.68 2104.75 1736.63 2108.69C1768.57 2112.34 1800.76 2112.51 1832.08 2107.85C1863.32 2102.93 1893.46 2092.81 1920.75 2077.45C1948 2062.17 1972.03 2041.28 1991.77 2016.69L1999.1 2007.4L2005.89 1997.66L2009.28 1992.78L2012.39 1987.71L2018.62 1977.55C2022.34 1970.51 2026.35 1963.63 2029.76 1956.39C2033.03 1949.09 2036.76 1942.02 2039.54 1934.47C2051.73 1904.78 2060.47 1873.49 2066.72 1841.62C2073.1 1809.75 2076.53 1777.16 2078.37 1744.46C2080.47 1711.76 2080.03 1678.83 2078.94 1645.94C2076.1 1580.12 2068.11 1514.35 2056.52 1449.17C2044.79 1383.99 2029.58 1319.44 2014.18 1254.88C1998.47 1190.34 1981.48 1126.16 1969.78 1059.92L1969.77 1059.88C1969.24 1056.91 1971.23 1054.08 1974.19 1053.56C1976.68 1053.11 1979.07 1054.44 1980.09 1056.63Z" />
					</g>
					<g id="&lt;Group&gt;">
						<g id="&lt;Group&gt;" style="opacity: 0.349">
							<path id="&lt;Path&gt;" class="shp1" d="M2218.88 1187.12C2078.54 1325.63 1880.05 1369.08 1703.17 1318.06C1693.51 1315.27 1683.94 1312.18 1674.37 1308.88C1648.27 1299.65 1622.69 1288.3 1597.98 1274.82C1585.71 1268.12 1573.62 1260.89 1561.79 1253.11L1579.71 1087.19L1602.33 878.12L1603.64 865.86L1618.6 726L1480.79 725.3L1331.01 724.52C1348.76 619.51 1398.48 518.93 1480.09 438.45C1548.95 370.46 1631.87 325.44 1719.31 303.21C1736.88 298.73 1754.54 295.2 1772.34 292.55C1784.21 290.81 1796.13 289.46 1808.05 288.55C1845.55 285.59 1883.4 286.63 1920.76 291.72C1958.13 296.81 1995.11 305.91 2030.91 319.04C2046.4 324.7 2061.66 331.14 2076.67 338.36C2082.33 341.01 2087.9 343.8 2093.38 346.71C2140.45 371.29 2184.51 403.61 2223.84 443.37C2427.82 650.13 2425.6 983.09 2218.88 1187.12Z" />
						</g>
						<g id="&lt;Group&gt;">
							<path id="&lt;Path&gt;" class="shp0" d="M1374.51 813.37C1383.99 900.77 1415.34 986.17 1468.6 1060.87C1479.46 1076.1 1491.19 1090.87 1503.83 1105.1C1509.97 1112.05 1516.38 1118.87 1522.98 1125.62C1542.94 1145.86 1564.14 1164.11 1586.37 1180.41C1605.49 1194.51 1625.4 1207.11 1645.85 1218.27C1670.54 1231.76 1696.11 1243.09 1722.24 1252.31C1731.78 1255.64 1741.38 1258.71 1751.04 1261.51C1927.91 1312.51 2126.39 1269.07 2266.71 1130.56C2473.47 926.55 2475.66 593.57 2271.69 386.84C2232.38 347.05 2188.29 314.74 2141.21 290.17C2135.74 287.24 2130.16 284.46 2124.53 281.81C2109.51 274.6 2094.25 268.15 2078.76 262.47C2042.95 249.34 2005.97 240.25 1968.61 235.19C1931.26 230.09 1893.42 229.02 1855.91 231.98C1843.98 232.91 1832.08 234.24 1820.2 236C1802.39 238.65 1784.72 242.16 1767.16 246.67C1679.71 268.87 1596.81 313.92 1527.95 381.9C1409.01 499.25 1357.79 659.25 1374.51 813.37Z" />
							<path id="&lt;Compound Path&gt;" fill-rule="evenodd" class="shp1" d="M1896.81 1283.54C1848 1283.54 1798.82 1276.77 1750.64 1262.88C1741 1260.08 1731.29 1256.98 1721.77 1253.65C1695.28 1244.3 1669.51 1232.82 1645.17 1219.52C1624.36 1208.17 1604.29 1195.4 1585.52 1181.56C1563.08 1165.1 1541.69 1146.61 1521.96 1126.62C1514.73 1119.21 1508.45 1112.49 1502.76 1106.05C1490.36 1092.08 1478.47 1077.16 1467.43 1061.7C1415.41 988.72 1382.79 902.9 1373.09 813.53C1355.61 652.3 1411.69 494.6 1526.95 380.88C1593.6 315.09 1676.54 268.2 1766.81 245.29C1783.91 240.9 1801.81 237.3 1819.99 234.59C1831.66 232.86 1843.71 231.5 1855.79 230.56C1893.42 227.59 1931.44 228.67 1968.8 233.78C2006.53 238.89 2043.69 248.09 2079.25 261.13C2094.73 266.81 2110.17 273.34 2125.14 280.53C2131.15 283.36 2136.63 286.1 2141.89 288.91C2189.92 313.98 2233.94 346.6 2272.71 385.84C2476.92 592.83 2474.68 927.36 2267.71 1131.57C2167.74 1230.26 2033.77 1283.54 1896.81 1283.54ZM1897.31 231.78C1883.52 231.78 1869.74 232.31 1856.02 233.4C1844 234.34 1832.02 235.69 1820.41 237.41C1802.33 240.1 1784.53 243.68 1767.52 248.05C1677.73 270.84 1595.24 317.48 1528.95 382.91C1414.31 496.02 1358.54 652.86 1375.93 813.22C1385.56 902.11 1418.01 987.46 1469.76 1060.05C1480.73 1075.43 1492.56 1090.27 1504.9 1104.16C1510.55 1110.56 1516.8 1117.26 1524 1124.62C1543.62 1144.5 1564.89 1162.89 1587.21 1179.26C1605.88 1193.03 1625.84 1205.73 1646.54 1217.02C1670.74 1230.25 1696.37 1241.67 1722.71 1250.96C1732.18 1254.27 1741.85 1257.36 1751.43 1260.14C1933.79 1312.72 2130.84 1262.68 2265.71 1129.54C2471.56 926.44 2473.79 593.71 2270.68 387.84C2232.12 348.81 2188.34 316.37 2140.55 291.43C2135.33 288.64 2129.9 285.91 2123.92 283.1C2109.02 275.95 2093.66 269.46 2078.27 263.81C2042.9 250.84 2005.94 241.68 1968.42 236.6C1944.89 233.39 1921.1 231.78 1897.31 231.78Z" />
						</g>
						<g id="&lt;Group&gt;" style="opacity: 0.349">
							<path id="&lt;Path&gt;" class="shp1" d="M2266.72 1130.54C2126.4 1269.09 1927.9 1312.52 1751.03 1261.5C1741.37 1258.7 1731.77 1255.64 1722.25 1252.3C1696.11 1243.09 1670.56 1231.75 1645.86 1218.28C1625.42 1207.1 1605.49 1194.51 1586.38 1180.43C1564.13 1164.13 1542.95 1145.87 1522.96 1125.63C1516.4 1118.86 1509.97 1112.06 1503.82 1105.12C1491.17 1090.87 1479.48 1076.09 1468.6 1060.87C1415.34 986.16 1383.97 900.78 1374.51 813.36C1369.29 765.34 1370.67 716.72 1378.65 669.02C1389.6 752.22 1420.48 833.2 1471.29 904.48C1482.14 919.73 1493.86 934.48 1506.51 948.73C1512.63 955.67 1519.06 962.47 1525.65 969.24C1545.64 989.48 1566.82 1007.74 1589.03 1024.04C1608.18 1038.12 1628.07 1050.71 1648.52 1061.89C1673.21 1075.36 1698.8 1086.7 1724.91 1095.92C1734.46 1099.25 1744.06 1102.32 1753.72 1105.11C1930.59 1156.13 2129.06 1112.7 2269.41 974.15C2351.3 893.36 2401.06 792.32 2418.66 686.94C2439.52 844.78 2388.76 1010.14 2266.72 1130.54Z" />
						</g>
						<g id="&lt;Group&gt;">
							<path id="&lt;Compound Path&gt;" fill-rule="evenodd" class="shp1" d="M1896.81 1293.09C1847.11 1293.09 1797.04 1286.2 1748 1272.06C1738.18 1269.21 1728.3 1266.05 1718.62 1262.67C1691.62 1253.14 1665.38 1241.45 1640.59 1227.91C1619.41 1216.35 1598.98 1203.34 1579.85 1189.25C1557.02 1172.5 1535.25 1153.68 1515.16 1133.33C1507.78 1125.77 1501.4 1118.93 1495.6 1112.37C1482.99 1098.17 1470.9 1082.99 1459.66 1067.25C1406.68 992.94 1373.46 905.56 1363.6 814.56C1345.79 650.41 1402.89 489.86 1520.24 374.08C1588.1 307.1 1672.55 259.36 1764.46 236.03C1781.86 231.56 1800.08 227.9 1818.58 225.14C1830.48 223.38 1842.75 222 1855.05 221.03C1893.35 218.02 1932.06 219.11 1970.09 224.31C2008.49 229.51 2046.33 238.88 2082.54 252.16C2098.31 257.95 2114.03 264.6 2129.28 271.91C2135.37 274.78 2140.99 277.6 2146.39 280.48C2195.22 305.97 2240.04 339.18 2279.5 379.12C2487.42 589.86 2485.13 930.46 2274.42 1138.37C2172.64 1238.84 2036.24 1293.09 1896.81 1293.09ZM1897.31 241.33C1883.78 241.33 1870.25 241.86 1856.77 242.92C1844.96 243.85 1833.2 245.17 1821.81 246.86C1804.06 249.5 1786.58 253.02 1769.89 257.3C1681.73 279.68 1600.74 325.47 1535.66 389.71C1423.11 500.76 1368.35 654.74 1385.42 812.19C1394.89 899.46 1426.74 983.25 1477.54 1054.5C1488.31 1069.6 1499.92 1084.18 1512.04 1097.81C1517.61 1104.12 1523.75 1110.7 1530.83 1117.95C1550.06 1137.44 1570.94 1155.49 1592.86 1171.56C1611.2 1185.08 1630.8 1197.55 1651.11 1208.64C1674.88 1221.62 1700.03 1232.83 1725.89 1241.96C1735.17 1245.2 1744.68 1248.24 1754.1 1250.97C1933.12 1302.59 2126.59 1253.46 2259 1122.74C2461.1 923.34 2463.29 596.67 2263.88 394.55C2226.02 356.23 2183.04 324.38 2136.14 299.9C2130.97 297.14 2125.67 294.49 2119.85 291.74C2105.16 284.69 2090.09 278.32 2074.98 272.77C2040.26 260.04 2003.97 251.06 1967.13 246.07C1944.03 242.91 1920.66 241.33 1897.31 241.33Z" />
						</g>
						<g id="&lt;Group&gt;">
							<path id="&lt;Compound Path&gt;" fill-rule="evenodd" class="shp1" d="M1896.8 1298.36C1846.62 1298.36 1796.06 1291.4 1746.54 1277.12C1736.62 1274.24 1726.65 1271.06 1716.88 1267.64C1689.6 1258.02 1663.1 1246.21 1638.06 1232.53C1616.68 1220.86 1596.04 1207.72 1576.73 1193.49C1553.68 1176.58 1531.7 1157.58 1511.41 1137.03C1503.95 1129.39 1497.51 1122.48 1491.65 1115.86C1478.93 1101.53 1466.72 1086.2 1455.37 1070.31C1401.87 995.26 1368.32 907.02 1358.36 815.12C1340.38 649.37 1398.04 487.25 1516.54 370.33C1585.06 302.7 1670.34 254.49 1763.16 230.93C1780.73 226.42 1799.12 222.71 1817.81 219.93C1829.83 218.15 1842.21 216.76 1854.64 215.78C1893.31 212.73 1932.4 213.84 1970.8 219.09C2009.57 224.34 2047.79 233.81 2084.35 247.22C2100.28 253.07 2116.16 259.78 2131.56 267.16C2137.7 270.06 2143.39 272.91 2148.87 275.84C2198.14 301.56 2243.4 335.09 2283.25 375.42C2493.21 588.23 2490.91 932.17 2278.12 1142.12C2175.34 1243.58 2037.61 1298.35 1896.8 1298.36ZM1897.3 246.59C1883.91 246.59 1870.53 247.12 1857.19 248.17C1845.5 249.09 1833.86 250.4 1822.58 252.07C1805.01 254.69 1787.72 258.16 1771.2 262.41C1683.93 284.56 1603.78 329.87 1539.36 393.46C1427.96 503.37 1373.76 655.78 1390.66 811.62C1400.03 897.99 1431.55 980.92 1481.82 1051.44C1492.49 1066.39 1503.98 1080.82 1515.97 1094.31C1521.5 1100.56 1527.58 1107.08 1534.6 1114.27C1553.61 1133.54 1574.28 1151.4 1595.97 1167.31C1614.14 1180.7 1633.53 1193.04 1653.64 1204.01C1677.16 1216.86 1702.05 1227.96 1727.64 1236.99C1736.82 1240.19 1746.23 1243.2 1755.57 1245.91C1932.75 1297 2124.24 1248.36 2255.3 1119C2455.33 921.62 2457.5 598.3 2260.13 398.25C2222.66 360.32 2180.12 328.8 2133.69 304.57C2128.57 301.82 2123.35 299.21 2117.6 296.5C2103.03 289.51 2088.12 283.21 2073.16 277.72C2038.8 265.12 2002.89 256.23 1966.42 251.29C1943.55 248.16 1920.42 246.59 1897.3 246.59Z" />
						</g>
						<g id="&lt;Group&gt;">
							<path id="&lt;Path&gt;" class="shp1" d="M1406.1 944.38C1609.73 1260.31 2055.76 1276.95 2216.95 941.38C2326.62 713.08 2187.75 429.44 1961.74 338.15C1797.24 271.71 1607.58 278.81 1434.67 505.93C1393.99 580.84 1373.6 648.74 1373.49 709.65C1373.39 770.56 1378.42 830.65 1388.6 889.9L1406.1 944.38Z" />
						</g>
						<g id="&lt;Group&gt;">
							<path id="&lt;Path&gt;" class="shp9" d="M2216.94 941.38C2055.76 1276.94 1609.72 1260.3 1406.09 944.39L1402.55 933.35C1693.41 1117.72 2082.93 1057.78 2252.21 721.53C2260.97 795.21 2250.77 870.92 2216.94 941.38Z" />
						</g>
						<g id="&lt;Group&gt;">
							<path id="&lt;Compound Path&gt;" fill-rule="evenodd" class="shp1" d="M1834.91 1256.53C1748.49 1256.53 1660.4 1235.34 1579.51 1193.75C1578.81 1193.39 1578.13 1192.98 1577.49 1192.51C1554.47 1175.62 1532.54 1156.66 1512.3 1136.16C1504.86 1128.54 1498.43 1121.64 1492.59 1115.03C1479.89 1100.74 1467.7 1085.44 1456.39 1069.59C1403.01 994.71 1369.54 906.67 1359.6 814.99C1341.66 649.61 1399.19 487.87 1517.41 371.22C1585.78 303.74 1670.86 255.64 1763.47 232.13C1764.48 231.88 1765.5 231.73 1766.54 231.68C1836.14 228.79 1909.87 242.82 1985.59 273.41C2120.5 327.9 2233.93 445.34 2289.03 587.57C2339.67 718.32 2336.59 854.8 2280.35 971.86C2219.25 1099.05 2120.36 1188.64 1994.38 1230.95C1943.41 1248.06 1889.49 1256.52 1834.91 1256.53ZM1594.28 1167.62C1718.87 1231.32 1861.14 1244.05 1984.83 1202.51C2102.95 1162.83 2195.79 1078.58 2253.31 958.87C2305.92 849.36 2308.67 721.34 2261.05 598.41C2208.89 463.76 2101.72 352.67 1974.36 301.23C1903.19 272.48 1834.21 259.16 1769.34 261.59C1682.49 283.93 1602.69 329.2 1538.49 392.57C1426.81 502.75 1372.48 655.54 1389.42 811.76C1398.81 898.34 1430.41 981.47 1480.81 1052.17C1491.5 1067.15 1503.02 1081.61 1515.05 1095.14C1520.58 1101.41 1526.67 1107.94 1533.71 1115.14C1552.49 1134.18 1572.88 1151.84 1594.28 1167.62Z" />
						</g>
						<g id="&lt;Group&gt;">
							<path id="&lt;Compound Path&gt;" fill-rule="evenodd" class="shp1" d="M1831.91 1203.48C1659.49 1203.48 1493.21 1109.52 1392.44 953.18C1391.67 951.99 1391.06 950.7 1390.63 949.35L1373.13 894.87C1372.9 894.14 1372.72 893.4 1372.59 892.65C1371.96 888.97 1357.09 801.34 1357.25 709.62C1357.41 615.23 1417.82 502.91 1420.39 498.18C1420.78 497.45 1421.24 496.75 1421.74 496.09C1573.8 296.36 1757.52 238.16 1967.82 323.09C2088.57 371.86 2190.1 476.96 2239.4 604.22C2284.75 721.3 2281.98 843.53 2231.6 948.41C2158.89 1099.78 2023.96 1192.41 1861.39 1202.56C1851.56 1203.18 1841.72 1203.48 1831.91 1203.48ZM1420.91 937.36C1521.18 1091.63 1689.05 1180.83 1859.37 1170.14C2009.85 1160.74 2134.85 1074.8 2202.31 934.35C2248.76 837.64 2251.17 724.57 2209.1 615.96C2162.98 496.91 2068.24 398.68 1955.65 353.21C1760.99 274.59 1590.32 328.95 1448.39 514.73C1442.35 526.18 1389.88 628.13 1389.74 709.68C1389.59 793.14 1402.72 875.66 1404.43 886.06L1420.91 937.36Z" />
						</g>
						<g id="&lt;Group&gt;">
							<path id="&lt;Path&gt;" class="shp0" d="M2441.57 1008.28C2408.23 1106.52 2322.28 1169.17 2249.59 1148.23C2176.9 1127.28 2145 1030.66 2178.34 932.42C2211.68 834.18 2297.63 771.52 2370.32 792.47C2443.01 813.42 2474.91 910.04 2441.57 1008.28Z" />
							<path id="&lt;Compound Path&gt;" fill-rule="evenodd" class="shp1" d="M2278.01 1168.43C2266.9 1168.43 2255.87 1166.94 2245.09 1163.84C2212.65 1154.49 2186.44 1132.2 2169.28 1099.37C2144.33 1051.62 2142.02 988.87 2162.96 927.2C2198.99 821.02 2294.05 753.6 2374.82 776.86C2407.26 786.21 2433.47 808.5 2450.63 841.33C2475.58 889.08 2477.89 951.83 2456.96 1013.5C2425.73 1105.51 2350.19 1168.43 2278.01 1168.43ZM2341.1 804.63C2282.82 804.63 2220.43 858.96 2193.72 937.64C2175.9 990.16 2177.53 1045 2198.08 1084.32C2211.02 1109.09 2230.39 1125.79 2254.08 1132.62C2318.42 1151.15 2395.65 1093.04 2426.19 1003.06C2444.02 950.54 2442.39 895.7 2421.83 856.38C2408.89 831.61 2389.52 814.91 2365.83 808.08C2357.75 805.75 2349.46 804.63 2341.1 804.63Z" />
						</g>
						<g id="&lt;Group&gt;">
							<path id="&lt;Path&gt;" class="shp0" d="M2426.03 1082.86C2377.59 1147.52 2302.77 1162.56 2258.92 1116.43C2215.07 1070.31 2218.79 980.5 2267.23 915.84C2315.67 851.18 2390.48 836.15 2434.33 882.27C2478.19 928.39 2474.47 1018.2 2426.03 1082.86Z" />
							<path id="&lt;Compound Path&gt;" fill-rule="evenodd" class="shp1" d="M2321.09 1144.66C2296.6 1144.66 2274.84 1135.32 2257.84 1117.45C2213.59 1070.9 2217.27 980.06 2266.04 914.95C2293.36 878.49 2329.93 856.35 2366.38 854.21C2393.25 852.63 2417.09 861.99 2435.41 881.25C2479.66 927.8 2475.99 1018.64 2427.21 1083.75C2399.9 1120.21 2363.33 1142.35 2326.87 1144.49C2324.93 1144.6 2323 1144.66 2321.09 1144.66ZM2372.15 857C2370.3 857 2368.44 857.06 2366.56 857.17C2330.97 859.26 2295.2 880.97 2268.41 916.73C2220.46 980.74 2216.69 1069.86 2259.99 1115.41C2277.69 1134.03 2300.76 1143.06 2326.7 1141.53C2362.28 1139.44 2398.05 1117.73 2424.84 1081.97C2472.79 1017.97 2476.57 928.84 2433.26 883.29C2416.85 866.03 2395.81 857 2372.15 857Z" />
						</g>
						<g id="&lt;Group&gt;" style="opacity: 0.349">
							<path id="&lt;Path&gt;" class="shp1" d="M2226.7 1025.42C2228.99 997.23 2239.01 969.57 2254.18 945.55C2254.38 1010.26 2299.08 1051.8 2358.55 1039.77C2396.98 1032.01 2432.74 1003.63 2456.18 966.44C2456.22 970.52 2456.03 974.73 2455.69 979.01C2449.84 1050.78 2393.83 1119.36 2330.59 1132.17C2267.35 1144.98 2220.86 1097.16 2226.7 1025.42Z" />
						</g>
						<g id="&lt;Group&gt;">
							<path id="&lt;Compound Path&gt;" fill-rule="evenodd" class="shp1" d="M2318.84 1159.67C2310.55 1159.67 2302.33 1158.59 2294.27 1156.33C2269.89 1149.51 2250.11 1132.78 2237.06 1107.94C2216.8 1069.35 2215.44 1015.06 2233.44 962.72C2264.14 873.37 2338.44 817.44 2402.59 835.38C2426.96 842.2 2446.74 858.93 2459.79 883.77C2480.05 922.36 2481.41 976.65 2463.42 1028.99C2436.57 1107.1 2376.4 1159.67 2318.84 1159.67ZM2378.52 864.61C2335.41 864.61 2285.82 910.26 2264.16 973.28C2249.02 1017.32 2249.65 1062.01 2265.83 1092.83C2271.95 1104.5 2283.38 1119.55 2303.02 1125.04C2349.01 1137.88 2408.4 1089.08 2432.69 1018.43C2447.83 974.39 2447.2 929.7 2431.02 898.88C2424.9 887.22 2413.47 872.16 2393.84 866.67C2388.86 865.28 2383.74 864.61 2378.52 864.61Z" />
						</g>
						<g id="&lt;Group&gt;" style="opacity: 0.702">
							<path id="&lt;Path&gt;" class="shp0" d="M2033.51 481.24C1887.08 432.69 1758 433.65 1646.28 484.12C1646.11 484.2 1645.93 484.28 1645.76 484.36C1610.5 500.33 1580.2 525.55 1557.85 557.15C1528.3 598.93 1514.05 632.05 1502.63 661.7C1479.51 721.81 1468.15 768.12 1468.57 800.61C1435.6 733.24 1427.51 668.03 1455.65 592.64C1458.45 585.22 1461.6 577.66 1465.08 570.01C1465.88 568.25 1466.71 566.52 1467.57 564.78C1467.54 564.75 1467.57 564.72 1467.64 564.68C1475.78 549.69 1487.23 530.38 1501.96 509.68C1546.36 447.22 1620.45 371.99 1723.48 363.48C1916.13 347.56 2044.56 474.69 2033.51 481.24Z" />
						</g>
						<g id="&lt;Group&gt;" style="opacity: 0.702">
							<path id="&lt;Path&gt;" class="shp0" d="M2050.72 756.33C2045.95 801.32 2073.37 841.11 2111.98 845.21C2150.58 849.31 2185.75 816.16 2190.53 771.17C2195.31 726.19 2167.88 686.39 2129.28 682.29C2090.67 678.19 2055.5 711.34 2050.72 756.33Z" />
						</g>
						<g id="&lt;Group&gt;" style="opacity: 0.702">
							<path id="&lt;Path&gt;" class="shp0" d="M2075.89 911.13C2075.49 929.81 2088.16 945.23 2104.19 945.57C2120.22 945.91 2133.53 931.05 2133.93 912.37C2134.33 893.69 2121.66 878.27 2105.63 877.93C2089.6 877.59 2076.29 892.46 2075.89 911.13Z" />
						</g>
					</g>
					<g id="&lt;Group&gt;">
						<path id="&lt;Path&gt;" class="shp0" d="M1227.99 1290.4C1208.46 1236.95 1211.46 1202.09 1236.99 1185.83C1288.76 1152.84 1327.53 1325.31 1370.99 1348.97C1399.96 1364.74 1352.29 1345.21 1227.99 1290.4Z" />
					</g>
					<g id="&lt;Group&gt;">
						<path id="&lt;Compound Path&gt;" fill-rule="evenodd" class="shp1" d="M1377.84 1369.27C1372.76 1369.27 1367.85 1367.46 1365.14 1366.47C1360.94 1364.92 1355.16 1362.64 1347.48 1359.5C1334.93 1354.36 1317.57 1347.02 1295.87 1337.68C1259 1321.82 1221.81 1305.42 1221.44 1305.26C1217.4 1303.48 1214.26 1300.12 1212.74 1295.97C1209.28 1286.51 1180.34 1202.66 1228.25 1172.13C1238.47 1165.63 1249.64 1163.8 1260.54 1166.84C1290.28 1175.14 1311.4 1217.88 1333.77 1263.12C1347.97 1291.83 1365.63 1327.56 1378.75 1334.7C1384.35 1337.75 1399.24 1345.85 1392.12 1360.33C1388.7 1367.29 1383.18 1369.27 1377.84 1369.27ZM1241.13 1278.43C1269.32 1290.84 1298.75 1303.62 1323.31 1314.11C1317.19 1302.89 1311.06 1290.49 1304.65 1277.52C1289 1245.87 1267.58 1202.54 1251.8 1198.14C1250.49 1197.77 1248.82 1197.55 1245.72 1199.53C1227 1211.45 1233.69 1254.19 1241.13 1278.43Z" />
					</g>
					<g id="&lt;Group&gt;">
						<path id="&lt;Path&gt;" class="shp0" d="M1981.54 1319.14C1976.11 1312.14 1969.5 1304.9 1962.33 1297.75C1913.88 1249.4 1851.94 1216.31 1784.65 1203.78C1641.7 1177.15 1620.15 1270.55 1439.32 1291.59C1400.39 1296.13 1335.56 1293.57 1297.42 1286.36L1241.81 1274.21C1206.44 1266.13 1171.22 1258.76 1136.4 1259.73C1111.17 1260.44 1086.03 1276.68 1072.98 1294.39C1053.18 1321.26 1055.3 1430.89 1140.3 1507.91C1192.01 1554.77 1370.95 1647.3 1734.47 1487.46L1981.54 1319.14Z" />
					</g>
					<g id="&lt;Group&gt;" style="opacity: 0.349">
						<path id="&lt;Path&gt;" class="shp1" d="M1734.49 1487.45C1370.95 1647.32 1192.02 1554.75 1140.3 1507.9C1055.3 1430.9 1053.17 1321.28 1073 1294.39C1073.35 1293.96 1073.66 1293.48 1074.05 1293.04C1085.19 1335.24 1109.2 1382.18 1152.57 1421.46C1204.68 1468.69 1372.84 1557.58 1704.36 1442.19C1731.8 1432.63 1753.95 1465.87 1734.49 1487.45L1734.49 1487.45Z" />
					</g>
					<g id="&lt;Group&gt;">
						<path id="&lt;Path&gt;" class="shp1" d="M1240 1282.12C1218.31 1279.91 1197.07 1276.84 1176.18 1275.5C1165.75 1274.69 1155.42 1274.55 1145.26 1274.71C1142.71 1274.72 1140.19 1274.91 1137.66 1275.01C1135.29 1275.23 1133.49 1275.36 1131.36 1275.81C1127.26 1276.59 1123.08 1277.66 1118.99 1279.3C1110.84 1282.59 1102.99 1287.47 1096.23 1293.33C1092.87 1296.26 1089.79 1299.46 1087.22 1302.77L1086.25 1304.01C1086.03 1304.38 1085.95 1304.67 1085.77 1304.99C1085.47 1305.61 1085.13 1306.21 1084.75 1306.79C1084.04 1308.16 1083.5 1310.33 1082.78 1312.02C1080.47 1320.07 1079.5 1329.74 1079.37 1339.41C1079.5 1344.3 1079.59 1349.22 1080.04 1354.15C1080.73 1359.08 1080.89 1364.05 1081.99 1368.96C1085.37 1388.68 1091.68 1408.03 1100.41 1426.16C1102.77 1430.6 1104.8 1435.22 1107.4 1439.53L1115.26 1452.42L1124.14 1464.62C1127.02 1468.75 1130.62 1472.32 1133.81 1476.2C1135.47 1478.09 1137.02 1480.08 1138.78 1481.87L1144.2 1487.14C1147.85 1490.53 1151.27 1494.52 1155.12 1497.34C1158.89 1500.4 1162.52 1503.56 1166.78 1506.24C1170.94 1508.99 1174.82 1512.04 1179.33 1514.38C1196.4 1525.05 1215.68 1532.49 1234.94 1539.39C1274.13 1552.04 1315.75 1558.13 1357.68 1559.17C1378.69 1558.81 1399.72 1559.12 1420.75 1556.63L1436.53 1555.25C1439.16 1555 1441.79 1554.83 1444.41 1554.52L1452.26 1553.28L1483.67 1548.37C1567.42 1534.06 1648.82 1505.67 1727.93 1472.59L1728.43 1472.39C1736.7 1468.93 1746.22 1472.83 1749.68 1481.11C1753.14 1489.39 1749.29 1498.88 1741.01 1502.34L1680.32 1527.97C1675.3 1530.2 1670.09 1531.98 1664.91 1533.83L1649.36 1539.38L1618.25 1550.47C1613.11 1552.43 1607.81 1553.96 1602.51 1555.49L1586.63 1560.17L1554.86 1569.5C1544.12 1572.15 1533.3 1574.51 1522.52 1577.03L1506.31 1580.66C1503.61 1581.24 1500.92 1581.91 1498.2 1582.43L1489.97 1583.73L1457.06 1588.93L1448.84 1590.23C1446.07 1590.56 1443.29 1590.75 1440.52 1591.02L1423.87 1592.52C1401.74 1595.14 1379.29 1594.91 1356.92 1595.28C1312.11 1594.16 1266.91 1588 1223.49 1573.69C1202.04 1565.81 1180.65 1557.26 1160.9 1544.73C1155.81 1541.98 1151.11 1538.33 1146.26 1535.02C1141.37 1531.83 1136.79 1527.88 1132.19 1524.02L1128.74 1521.13L1125.62 1518.07L1119.44 1511.92L1113.27 1505.75C1111.26 1503.65 1109.47 1501.35 1107.56 1499.15C1103.89 1494.64 1099.85 1490.43 1096.52 1485.64L1086.41 1471.41L1077.46 1456.42C1074.52 1451.4 1072.17 1446.05 1069.52 1440.88C1059.64 1419.81 1052.58 1397.46 1048.86 1374.36C1045.33 1351.17 1044.21 1327.63 1051.36 1302.2C1052.65 1298.86 1053.54 1295.74 1055.29 1292.28C1056.26 1290.52 1057.28 1288.76 1058.32 1287.03C1058.84 1286.19 1059.38 1285.27 1059.91 1284.51L1061.45 1282.55C1065.59 1277.33 1070.15 1272.75 1075 1268.6C1084.67 1260.27 1095.8 1253.96 1107.91 1249.52C1113.99 1247.37 1120.39 1245.72 1127.02 1244.97C1130.24 1244.54 1133.88 1244.46 1136.93 1244.43C1139.82 1244.5 1142.73 1244.49 1145.6 1244.66C1157.14 1245.09 1168.48 1246.61 1179.58 1248.57C1201.78 1252.66 1223 1258.87 1243.62 1266.29C1247.87 1267.82 1250.08 1272.51 1248.55 1276.76C1247.25 1280.37 1243.65 1282.5 1240 1282.12Z" />
					</g>
					<g id="&lt;Group&gt;">
						<path id="&lt;Path&gt;" class="shp1" d="M1968.7 1329.09C1960.11 1318.37 1949.26 1308.13 1938.41 1298.42C1927.48 1288.73 1915.93 1279.74 1903.81 1271.61C1879.56 1255.38 1853.17 1242.51 1825.66 1233.1C1798.21 1223.72 1769.04 1218.17 1740.88 1217.37C1739.12 1217.31 1737.34 1217.11 1735.59 1217.17L1730.35 1217.46L1719.88 1218.02C1716.36 1218 1712.99 1218.96 1709.54 1219.39L1699.24 1221.06C1685.69 1224.46 1672.23 1228.41 1658.83 1234.41C1632.01 1245.78 1604.78 1261.2 1575.42 1273.47C1546.16 1285.86 1515.29 1295.45 1484.01 1301.15C1480.1 1301.89 1476.23 1302.87 1472.3 1303.41L1460.52 1305.05C1452.6 1306.05 1444.97 1307.45 1436.82 1308.09C1420.59 1309.43 1404.84 1309.49 1389.09 1308.79C1381.23 1308.51 1373.39 1307.95 1365.58 1307.18C1357.76 1306.46 1349.97 1305.61 1342.19 1304.4C1326.66 1302.18 1311.16 1299.11 1295.91 1294.34C1291.6 1292.99 1289.19 1288.4 1290.54 1284.09C1291.68 1280.46 1295.11 1278.19 1298.74 1278.36L1298.93 1278.37C1328.88 1279.83 1359.27 1279.81 1389.26 1278.88C1404.22 1278.23 1419.24 1277.69 1433.59 1275.93C1440.73 1275.08 1448.22 1273.69 1455.52 1272.61L1466.54 1270.88C1470.21 1270.32 1473.78 1269.32 1477.41 1268.57C1506.5 1262.74 1534.51 1253.46 1561.61 1241.43C1588.88 1229.74 1615.13 1214.5 1644.74 1201.5C1659.35 1194.82 1675.35 1189.7 1691.62 1185.76C1695.74 1185 1699.91 1184.37 1704.05 1183.69C1708.21 1183.14 1712.34 1182.08 1716.53 1182.03L1729.07 1181.33L1735.34 1181C1737.42 1180.94 1739.48 1181.14 1741.55 1181.2C1774.81 1182.04 1806.67 1188.5 1837.27 1199.13C1867.89 1209.66 1896.87 1224.64 1923.38 1243.04C1936.62 1252.27 1949.2 1262.42 1961.07 1273.31C1972.88 1284.3 1984.08 1295.64 1994.37 1309.19C1999.8 1316.34 1998.41 1326.53 1991.27 1331.96C1984.24 1337.3 1974.26 1336.04 1968.77 1329.19L1968.7 1329.09Z" />
					</g>
					<g id="&lt;Group&gt;">
						<path id="&lt;Path&gt;" class="shp1" d="M1543.02 1959.84C1528.64 1971.11 1514.67 1983.21 1501.17 1995.55C1487.67 2007.93 1474.61 2020.71 1462.06 2033.83C1455.82 2040.35 1445.48 2040.58 1438.96 2034.34C1432.44 2028.11 1432.21 2017.77 1438.45 2011.25C1439.24 2010.42 1440.19 2009.63 1441.1 2009.01C1456.77 1998.39 1472.69 1988.34 1488.88 1978.85C1505.11 1969.38 1521.44 1960.41 1538.36 1952.17C1540.6 1951.09 1543.3 1952.02 1544.38 1954.26C1545.33 1956.2 1544.75 1958.49 1543.12 1959.77L1543.02 1959.84Z" />
					</g>
					<g id="&lt;Group&gt;">
						<path id="&lt;Path&gt;" class="shp1" d="M1188.18 1837.97C1187.35 1839.8 1186.35 1842.7 1185.52 1845.19C1184.68 1847.79 1183.89 1850.44 1183.16 1853.12C1181.7 1858.48 1180.51 1863.94 1179.58 1869.44C1177.73 1880.44 1177.05 1891.62 1177.84 1902.69C1178.75 1913.72 1181.2 1924.66 1185.96 1934.75C1190.63 1944.88 1197.74 1953.96 1206.57 1961.52L1206.62 1961.57C1207.96 1962.72 1208.12 1964.73 1206.97 1966.07C1205.95 1967.27 1204.25 1967.52 1202.94 1966.76C1192.17 1960.52 1182.33 1951.93 1174.87 1941.34C1167.3 1930.81 1162.09 1918.63 1158.71 1906.09C1155.44 1893.52 1153.88 1880.57 1153.68 1867.66C1153.59 1861.2 1153.79 1854.74 1154.34 1848.27C1154.61 1845.04 1154.96 1841.8 1155.39 1838.55C1155.87 1835.19 1156.27 1832.26 1157.15 1828.34L1157.31 1827.62C1159.3 1818.8 1168.05 1813.26 1176.87 1815.24C1185.69 1817.22 1191.23 1825.98 1189.24 1834.8C1189 1835.88 1188.62 1836.99 1188.18 1837.97Z" />
					</g>
					<g id="&lt;Group&gt;">
						<path id="&lt;Path&gt;" class="shp0" d="M2075.99 1726.65C2114.17 1720.09 2160.91 1697.78 2160.91 1657.03C2160.91 1608.69 2131.1 1585.65 2071.47 1587.91C2022.65 1594.58 1961.9 1595.83 1889.19 1591.67C1770.49 1584.88 1671.29 1574.85 1627.56 1578.16C1607.62 1579.67 1572.26 1587.07 1570.42 1638.69C1569.54 1663.48 1589.05 1684.6 1621.08 1698.23C1743.3 1750.21 2045.73 1731.85 2075.99 1726.65Z" />
					</g>
					<g id="&lt;Group&gt;" style="opacity: 0.349">
						<path id="&lt;Path&gt;" class="shp1" d="M2160.89 1657.02C2160.89 1697.78 2114.17 1720.1 2075.98 1726.67C2045.74 1731.84 1743.28 1750.2 1621.08 1698.22C1589.06 1684.6 1569.53 1663.5 1570.44 1638.71C1570.88 1626.26 1573.27 1616.39 1576.97 1608.56C1585.1 1622.48 1600.55 1634.31 1621.08 1643.06C1743.28 1695.04 2045.74 1676.68 2075.98 1671.51C2105.47 1666.42 2140.1 1651.97 2154.28 1626.83C2158.41 1635.05 2160.89 1644.97 2160.89 1657.02Z" />
					</g>
					<g id="&lt;Group&gt;">
						<path id="&lt;Compound Path&gt;" fill-rule="evenodd" class="shp1" d="M1909.43 1750.51C1807.16 1750.51 1684.29 1742.77 1614.73 1713.18C1575.16 1696.35 1553.09 1668.99 1554.19 1638.11C1555.81 1592.41 1581.43 1565.37 1626.33 1561.97C1656.95 1559.66 1711.83 1563.49 1781.34 1568.34C1814.17 1570.64 1851.38 1573.24 1890.12 1575.45C1996.09 1581.51 2068.56 1571.91 2069.28 1571.82C2069.8 1571.75 2070.32 1571.7 2070.85 1571.68C2072.99 1571.58 2123.42 1570.04 2154.16 1599.65C2169.42 1614.33 2177.16 1633.64 2177.16 1657.03C2177.16 1707.75 2124.14 1734.86 2078.74 1742.66C2078.74 1742.66 2078.74 1742.66 2078.74 1742.66C2063.45 1745.29 1993.37 1750.51 1909.43 1750.51ZM1648.42 1593.75C1640.93 1593.75 1634.36 1593.94 1628.78 1594.36C1608.69 1595.89 1587.97 1602.41 1586.66 1639.27C1585.82 1662.98 1614.9 1677.94 1627.44 1683.28C1743.42 1732.61 2042.99 1715.84 2073.24 1710.64C2099.77 1706.08 2144.67 1689.66 2144.67 1657.03C2144.67 1642.66 2140.43 1631.57 2131.71 1623.13C2112.51 1604.54 2077.79 1604.07 2072.69 1604.14C2063.22 1605.35 1992.16 1613.83 1888.26 1607.89C1849.32 1605.66 1812 1603.05 1779.07 1600.75C1724.35 1596.93 1678.85 1593.75 1648.42 1593.75ZM2075.99 1726.65L2076.04 1726.65L2075.99 1726.65Z" />
					</g>
					<g id="&lt;Group&gt;">
						<path id="&lt;Path&gt;" class="shp1" d="M1429.85 1586.43C1426.8 1586.43 1423.76 1585.3 1421.39 1583.02C1416.55 1578.35 1416.4 1570.64 1421.07 1565.79C1490.23 1493.98 1452.6 1292.42 1452.21 1290.39C1450.95 1283.78 1455.28 1277.4 1461.88 1276.13C1468.49 1274.87 1474.88 1279.19 1476.15 1285.8C1477.83 1294.59 1516.52 1501.81 1438.62 1582.7C1436.23 1585.18 1433.04 1586.43 1429.85 1586.43Z" />
					</g>
					<g id="&lt;Group&gt;">
						<path id="&lt;Path&gt;" class="shp1" d="M1433.88 2044.72C1432.19 2044.72 1430.48 2044.37 1428.84 2043.62C1301.42 1985.54 1263.49 1893.55 1254.1 1826.6C1243.99 1754.43 1263.79 1696.67 1264.64 1694.25C1266.85 1687.9 1273.8 1684.54 1280.16 1686.77C1286.51 1688.99 1289.86 1695.94 1287.64 1702.29C1287.31 1703.24 1268.84 1757.91 1278.37 1824.15C1291.05 1912.28 1345.08 1978.66 1438.94 2021.45C1445.07 2024.24 1447.77 2031.47 1444.97 2037.59C1442.93 2042.08 1438.51 2044.72 1433.88 2044.72Z" />
					</g>
					<g id="&lt;Group&gt;">
						<path id="&lt;Path&gt;" class="shp1" d="M2203.78 1314.8C2179.12 1315.14 2154.7 1318.66 2130.66 1323.72C2118.64 1326.29 2106.71 1329.2 2094.89 1332.48C2083.17 1335.75 2071.18 1339.39 2060.16 1343.31L2060 1343.36C2051.52 1346.38 2042.19 1341.95 2039.18 1333.46C2036.16 1324.98 2040.59 1315.65 2049.08 1312.64C2049.9 1312.34 2050.83 1312.1 2051.67 1311.95C2064.79 1309.6 2077.21 1307.99 2090 1306.6C2102.7 1305.24 2115.42 1304.27 2128.15 1303.68C2153.6 1302.57 2179.22 1303.12 2204.38 1306.93C2206.54 1307.25 2208.03 1309.27 2207.7 1311.43C2207.41 1313.38 2205.75 1314.78 2203.85 1314.8L2203.78 1314.8Z" />
					</g>
				</g>
			</g>
		</g>
	</g>
</svg>